<?xml version="1.0" encoding="utf-8"?>
<!-- Generator: Adobe Illustrator 24.2.1, SVG Export Plug-In . SVG Version: 6.00 Build 0)  -->
<svg version="1.1" id="Capa_1" xmlns="http://www.w3.org/2000/svg" xmlns:xlink="http://www.w3.org/1999/xlink" x="0px" y="0px"
	 width="111.2px" height="104.3px" viewBox="0 0 111.2 104.3" style="enable-background:new 0 0 111.2 104.3;" xml:space="preserve"
	>
<style type="text/css">
	.st0{fill:none;stroke:#F6AF95;stroke-width:1.5;stroke-linecap:round;stroke-linejoin:round;stroke-miterlimit:10;}
	.st1{fill:none;stroke:#F6AF95;stroke-width:0.5;stroke-linecap:round;stroke-linejoin:round;stroke-miterlimit:10;}
	.st2{fill:#F6AF95;}
	.st3{fill:none;stroke:#F6AF95;stroke-width:1.5;stroke-miterlimit:10;}
</style>
<g id="XMLID_733_">
	<g>
		<path id="XMLID_76_" class="st0" d="M1719.2,65.2c1.5,8.7-4.2,17-12.9,18.5c-8.7,1.5-17-4.2-18.5-12.9c-1.5-8.7,4.2-17,12.9-18.5
			C1709.4,50.7,1717.7,56.5,1719.2,65.2z"/>
		<path id="XMLID_75_" class="st1" d="M1710.2,56.5c3.3,1.9,5.7,5.1,6.4,9.1"/>
		<path id="XMLID_74_" class="st1" d="M1707,55.2c0.7,0.2,1.3,0.4,2,0.7"/>
		<path id="XMLID_73_" class="st0" d="M1706.3,49.8c1.7-1.9,4.1-3.3,6.9-3.8c6.4-1,12.4,3.3,13.4,9.7c0.8,4.6-1.3,9.1-5,11.6"/>
		<path id="XMLID_72_" class="st1" d="M1720.1,49.3c2.4,1.4,4.1,3.8,4.6,6.8"/>
		<path id="XMLID_71_" class="st1" d="M1717.8,48.3c0.5,0.1,1,0.3,1.4,0.5"/>
	</g>
</g>
<g id="XMLID_513_">
	<g>
		<path id="XMLID_108_" class="st0" d="M1722.2,148.6v-25.1l19.7-21.2V83.6c0,0,0-6.1,0-11.8c0-2.1-3.3-0.6-3.9,2.9
			c-0.6,3.5-0.6,16.9-0.6,16.9"/>
		<path id="XMLID_107_" class="st0" d="M1705.6,148.6v-24.9c0,0-2.6-10.2,3.9-16.8c4.6-4.8,10.9-5,10.9-5s9.2-8.7,12.2-9.9
			c2.9-1.2,7,0.3,5.8,1.7c-1.2,1.5-11.3,12.4-13.8,16.3"/>
		<path id="XMLID_106_" class="st0" d="M1730.1,93.4c0,0,0.3-13.3,0.4-15.3c0.3-3.8,3.1-4.8,3.1-4.8"/>
		<path id="XMLID_105_" class="st0" d="M1727,95.9c0,0,0.3-12.6,0.4-14.6c0.3-3.8,3.1-4.8,3.1-4.8"/>
		<path id="XMLID_104_" class="st0" d="M1733.5,91.5c0,0,0-14.6,0.6-18.1c0.6-3.5,3.9-5,3.9-2.9c0,5.7,0,4.7,0,4.7"/>
		<path id="XMLID_103_" class="st0" d="M1685.4,148.6v-25.1l-19.7-21.2V83.6c0,0,0-6.1,0-11.8c0-2.1,3.3-0.6,3.9,2.9
			c0.6,3.5,0.6,16.9,0.6,16.9"/>
		<path id="XMLID_102_" class="st0" d="M1702,148.6v-24.9c0,0,2.6-10.2-3.9-16.8c-4.6-4.8-10.9-5-10.9-5s-9.2-8.7-12.2-9.9
			c-2.9-1.2-7,0.3-5.8,1.7c1.2,1.5,11.3,12.4,13.8,16.3"/>
		<path id="XMLID_101_" class="st0" d="M1677.5,93.4c0,0-0.3-13.3-0.4-15.3c-0.3-3.8-3.1-4.8-3.1-4.8"/>
		<path id="XMLID_100_" class="st0" d="M1680.5,95.9c0,0-0.3-12.6-0.4-14.6c-0.3-3.8-3.1-4.8-3.1-4.8"/>
		<path id="XMLID_99_" class="st0" d="M1674.1,91.5c0,0,0-14.6-0.6-18.1c-0.6-3.5-3.9-5-3.9-2.9c0,5.7,0,4.7,0,4.7"/>
	</g>
</g>
<g id="XMLID_506_">
	<g>
		<polyline id="XMLID_37_" class="st0" points="1729.4,46.9 1758.6,46.9 1758.6,147.5 1729,147.5 		"/>
		<polyline id="XMLID_36_" class="st0" points="1678.8,147.5 1648.9,147.5 1648.9,46.9 1698.1,46.9 		"/>
	</g>
</g>
<g id="XMLID_500_">
	<g>
		<polyline id="XMLID_33_" class="st0" points="1698.2,176.1 1758.6,176.1 1758.6,276.6 1710.8,276.6 		"/>
		<polyline id="XMLID_32_" class="st0" points="1710.8,276.6 1648.9,276.6 1648.9,176.1 1698.1,176.1 		"/>
	</g>
</g>
<g id="XMLID_437_">
	<g>
		<polygon id="XMLID_22_" class="st0" points="1678.8,794.7 1648.9,794.7 1648.9,694.1 1698.1,694.1 1729.4,694.1 1758.6,694.1 
			1758.6,794.7 1729,794.7 		"/>
	</g>
</g>
<g id="XMLID_1200_">
	<path id="XMLID_1222_" class="st2" d="M1676,653.3c-2.1,0-3.8-1.6-3.8-4.1v0c0-2.3,1.6-4.1,3.7-4.1c2.2,0,3.6,1.8,3.6,4.1
		c0,0.2-0.2,0.4-0.4,0.4h-6.1c0.1,2,1.5,3.1,3.1,3.1c1.1,0,1.9-0.5,2.5-1.1c0.1-0.1,0.1-0.1,0.2-0.1c0.2,0,0.4,0.2,0.4,0.4
		c0,0.1,0,0.2-0.1,0.3C1678.3,652.8,1677.4,653.3,1676,653.3 M1678.7,648.8c-0.1-1.6-1-3-2.8-3c-1.6,0-2.8,1.3-2.9,3H1678.7z"/>
	<path id="XMLID_1221_" class="st2" d="M1687.5,652.8c0,0.2-0.2,0.4-0.4,0.4c-0.2,0-0.4-0.2-0.4-0.4v-1.1c-0.5,0.9-1.4,1.6-2.8,1.6
		c-2,0-3.1-1.4-3.1-3.2v-4.5c0-0.2,0.2-0.4,0.4-0.4c0.2,0,0.4,0.2,0.4,0.4v4.3c0,1.6,0.9,2.7,2.5,2.7c1.5,0,2.7-1.2,2.7-2.8v-4.2
		c0-0.2,0.2-0.4,0.4-0.4c0.2,0,0.4,0.2,0.4,0.4V652.8z"/>
	<g id="XMLID_1207_">
		<path id="XMLID_1220_" class="st2" d="M1689.2,646c0-0.6,0.5-1.2,1.2-1.2c0.6,0,1.2,0.5,1.2,1.2v0.4c0.3-0.8,0.9-1.5,1.6-1.5
			c0.7,0,1.1,0.5,1.1,1.1c0,0.6-0.4,1-0.9,1.1c-1.2,0.3-1.8,1.2-1.8,2.8v2.2c0,0.6-0.5,1.2-1.2,1.2c-0.6,0-1.2-0.5-1.2-1.2V646z"/>
		<path id="XMLID_1217_" class="st2" d="M1698.5,653.3c-2.5,0-4.3-1.7-4.3-4.3v0c0-2.4,1.7-4.3,4.1-4.3c2.8,0,4,2.3,4,4
			c0,0.7-0.5,1.1-1.1,1.1h-4.6c0.2,1.1,1,1.6,2,1.6c0.6,0,1.2-0.2,1.7-0.6c0.2-0.1,0.3-0.2,0.6-0.2c0.5,0,0.9,0.4,0.9,0.9
			c0,0.3-0.1,0.5-0.3,0.7C1700.6,652.9,1699.7,653.3,1698.5,653.3 M1700,648.4c-0.1-1-0.8-1.8-1.7-1.8c-1,0-1.6,0.7-1.8,1.8H1700z"
			/>
		<path id="XMLID_1216_" class="st2" d="M1702.9,649L1702.9,649c0-2.4,1.8-4.3,4.3-4.3c1.2,0,2.1,0.3,2.8,0.9
			c0.2,0.1,0.4,0.4,0.4,0.8c0,0.6-0.5,1-1.1,1c-0.3,0-0.5-0.1-0.7-0.2c-0.4-0.3-0.8-0.5-1.5-0.5c-1.2,0-2,1-2,2.2v0
			c0,1.3,0.8,2.3,2.1,2.3c0.6,0,1.1-0.2,1.5-0.6c0.1-0.1,0.4-0.2,0.6-0.2c0.6,0,1,0.4,1,1c0,0.3-0.1,0.6-0.3,0.7
			c-0.7,0.6-1.6,1.1-2.9,1.1C1704.7,653.3,1702.9,651.4,1702.9,649"/>
		<path id="XMLID_1213_" class="st2" d="M1711.2,642.9c0-0.7,0.6-1.1,1.3-1.1c0.7,0,1.3,0.4,1.3,1.1v0c0,0.7-0.6,1.1-1.3,1.1
			C1711.8,644,1711.2,643.6,1711.2,642.9L1711.2,642.9z M1711.4,646c0-0.6,0.5-1.2,1.2-1.2c0.6,0,1.2,0.5,1.2,1.2v6.1
			c0,0.6-0.5,1.2-1.2,1.2c-0.6,0-1.2-0.5-1.2-1.2V646z"/>
		<path id="XMLID_1212_" class="st2" d="M1714.7,649L1714.7,649c0-2.4,1.8-4.3,4.3-4.3c1.2,0,2.1,0.3,2.8,0.9
			c0.2,0.1,0.4,0.4,0.4,0.8c0,0.6-0.5,1-1.1,1c-0.3,0-0.5-0.1-0.7-0.2c-0.4-0.3-0.8-0.5-1.5-0.5c-1.2,0-2,1-2,2.2v0
			c0,1.3,0.8,2.3,2.1,2.3c0.6,0,1.1-0.2,1.5-0.6c0.1-0.1,0.4-0.2,0.6-0.2c0.6,0,1,0.4,1,1c0,0.3-0.1,0.6-0.3,0.7
			c-0.7,0.6-1.6,1.1-2.9,1.1C1716.6,653.3,1714.7,651.4,1714.7,649"/>
		<path id="XMLID_1211_" class="st2" d="M1723.3,643c0-0.6,0.5-1.2,1.2-1.2c0.6,0,1.2,0.5,1.2,1.2v9.1c0,0.6-0.5,1.2-1.2,1.2
			c-0.6,0-1.2-0.5-1.2-1.2V643z"/>
		<path id="XMLID_1208_" class="st2" d="M1726.6,649L1726.6,649c0-2.4,1.9-4.3,4.5-4.3c2.6,0,4.4,1.9,4.4,4.3v0
			c0,2.4-1.9,4.3-4.5,4.3C1728.5,653.3,1726.6,651.4,1726.6,649 M1733.2,649L1733.2,649c0-1.2-0.9-2.3-2.2-2.3c-1.3,0-2.1,1-2.1,2.2
			v0c0,1.2,0.9,2.3,2.2,2.3C1732.4,651.3,1733.2,650.3,1733.2,649"/>
	</g>
	<g id="XMLID_1202_">
		<g id="XMLID_1204_">
			<path id="XMLID_1206_" class="st3" d="M1701.4,604.6c0,2.5-2,4.5-4.5,4.5c-2.5,0-4.5-2-4.5-4.5c0-2.5,2-4.5,4.5-4.5
				C1699.4,600.2,1701.4,602.2,1701.4,604.6"/>
			<path id="XMLID_1205_" class="st3" d="M1714.8,604.6c0,2.5-2,4.5-4.5,4.5c-2.5,0-4.5-2-4.5-4.5c0-2.5,2-4.5,4.5-4.5
				C1712.8,600.2,1714.8,602.2,1714.8,604.6"/>
		</g>
		<path id="XMLID_1203_" class="st3" d="M1734.9,613.3l-5.3-6.9c-0.5-0.7-1.3-0.7-1.9,0l-5.3,6.9c-0.5,0.7-0.2,1.2,0.6,1.2l2.3,0
			c-3.4,9-12.4,15.1-22.3,14.7c-11.3-0.5-20.5-9.3-21.5-20.5c-0.2-1.7-1.6-2.9-3.3-2.8c-1.7,0.2-2.9,1.6-2.8,3.3
			c0.6,6.9,3.7,13.3,8.7,18.1c5,4.8,11.6,7.7,18.6,8c7,0.3,13.8-1.9,19.3-6.3c4.7-3.7,8.1-8.6,9.7-14.3l0,0.2h0l2.5-0.2
			C1735.2,614.7,1735.4,614,1734.9,613.3z"/>
	</g>
	<path id="XMLID_1201_" class="st3" d="M1732.4,600.1c-2.5-12.9-13.6-22.5-26.9-23.4c-12.8-0.8-25.5,7.4-30.2,18h-2.4
		c-0.9,0-1.1,0.7-0.6,1.4l5.4,7c0.5,0.7,1.4,0.7,1.9,0l5.3-7c0.5-0.7,0.2-1.4-0.6-1.4h-2.1c4.3-7.3,13.4-12.6,22.9-12
		c10.5,0.6,19.2,8.2,21.2,18.4c0.3,1.6,1.9,2.8,3.6,2.4C1731.6,603.3,1732.7,601.8,1732.4,600.1z"/>
</g>
<g id="XMLID_1173_">
	<path id="XMLID_430_" class="st0" d="M1693.8,262c1.6,1,3.4,1.6,5.3,1.6c3.7,0,6.9-2,8.5-5.1c1.7,3,4.9,5.1,8.5,5.1
		c2.8,0,5.4-1.2,7.2-3.2c0,0,0,0,0.1,0c1.1-1.1,1.9-2.5,2.2-3.9c0.4,0,0.8,0.1,1.2,0.1c5.8,0,10.4-4.7,10.4-10.4c0-0.3,0-0.6,0-1
		c4.4-2.3,7.1-6.8,7.1-11.8c0-2.7-0.8-5.2-2.2-7.4c0,0,0,0,0,0c0,0-0.1-0.1-0.1-0.1c-0.6-0.9-1.4-1.7-2.2-2.5c2-2.1,3.1-4.8,3.1-7.7
		c0-4-2.2-7.7-5.7-9.7c0-0.1,0-0.1,0-0.2c0-5.5-3.9-10.1-9.2-11c-1.6-4.3-5.8-7.2-10.4-7.2c-4.3,0-8.1,2.5-9.9,6.1
		c0-0.1-0.1-0.1-0.1-0.2c-1.9-3.5-5.6-5.9-9.8-5.9c-4.6,0-8.8,2.9-10.4,7.2c-5.3,0.9-9.2,5.5-9.2,11c0,0.1,0,0.1,0,0.2
		c-3.5,2-5.7,5.7-5.7,9.7c0,2.9,1.1,5.7,3.1,7.7c-2.9,2.5-4.5,6.1-4.5,10 M1725.3,253.9c-0.1-2.1-0.9-4.2-2.5-5.9"/>
	<path id="XMLID_428_" class="st0" d="M1731.5,224.5c2,0.6,4.3,0.6,6.4-0.4"/>
	<path id="XMLID_328_" class="st0" d="M1691.5,258.8l-1.1-2.9c0.3-0.5,0.5-0.9,0.7-1.4l3-0.8c0.5-0.1,0.9-0.6,0.9-1.1l0.4-4
		c0-0.5-0.2-1-0.7-1.2l-2.9-1.3c-0.1-0.5-0.3-1-0.5-1.5l1.6-2.7c0.3-0.5,0.2-1-0.1-1.4l-2.6-3.1c-0.3-0.4-0.9-0.6-1.4-0.4l-2.9,1.1
		c-0.5-0.3-0.9-0.5-1.4-0.7l-0.8-3c-0.1-0.5-0.6-0.9-1.1-0.9l-4-0.4c-0.5,0-1,0.2-1.2,0.7l-1.3,2.9c-0.5,0.1-1,0.3-1.5,0.5l-2.7-1.6
		c-0.5-0.3-1-0.2-1.4,0.1l-3.1,2.6c-0.4,0.3-0.6,0.9-0.4,1.4l1.1,2.9c-0.3,0.5-0.5,0.9-0.7,1.4l-3,0.8c-0.5,0.1-0.9,0.6-0.9,1.1
		l-0.4,4c0,0.5,0.2,1,0.7,1.2l2.9,1.3c0.1,0.5,0.3,1,0.5,1.5l-1.6,2.7c-0.3,0.5-0.2,1,0.1,1.4l2.6,3.1c0.3,0.4,0.9,0.6,1.4,0.4
		l2.9-1.1c0.5,0.3,0.9,0.5,1.4,0.7l0.8,3c0.1,0.5,0.6,0.9,1.1,0.9l4,0.4c0,0,0.1,0,0.1,0c0.5,0,0.9-0.3,1.1-0.7l1.3-2.9
		c0.5-0.1,1-0.3,1.5-0.5l2.7,1.6c0.5,0.3,1,0.2,1.4-0.1l3.1-2.6C1691.6,259.8,1691.7,259.3,1691.5,258.8z"/>
	<path id="XMLID_325_" class="st0" d="M1683.5,249.5c-0.1,1.1-0.6,2.1-1.5,2.8c-0.9,0.7-1.9,1.1-3.1,1h0c-1.1-0.1-2.1-0.6-2.8-1.5
		c-0.7-0.9-1.1-1.9-1-3.1c0.2-2.2,2-3.8,4.2-3.8c0.1,0,0.3,0,0.4,0c1.1,0.1,2.1,0.6,2.8,1.5S1683.6,248.4,1683.5,249.5z"/>
	<polyline id="XMLID_324_" class="st0" points="1675.5,223.3 1678.9,225.8 1691,226.5 1697.1,221.1 	"/>
	<line id="XMLID_323_" class="st0" x1="1678.1" y1="205.9" x2="1687.4" y2="212.3"/>
	<polyline id="XMLID_322_" class="st0" points="1699.4,205.7 1707.7,193.6 1707.7,260.2 	"/>
	<path id="XMLID_321_" class="st0" d="M1689.9,212.1c0.8,0.8,0.8,2,0,2.8c-0.8,0.8-2,0.8-2.8,0c-0.8-0.8-0.8-2,0-2.8
		C1687.9,211.3,1689.2,211.3,1689.9,212.1z"/>
	<path id="XMLID_320_" class="st0" d="M1699.7,221.3c-0.8,0.8-2,0.8-2.8,0c-0.8-0.8-0.8-2,0-2.8c0.8-0.8,2-0.8,2.8,0
		C1700.5,219.3,1700.5,220.5,1699.7,221.3z"/>
	<path id="XMLID_319_" class="st0" d="M1698.8,234.6c-0.8,0.8-2,0.8-2.8,0c-0.8-0.8-0.8-2,0-2.8c0.8-0.8,2-0.8,2.8,0
		C1699.5,232.6,1699.5,233.8,1698.8,234.6z"/>
	<path id="XMLID_318_" class="st0" d="M1698.5,196.1c-0.8,0.8-2,0.8-2.8,0c-0.8-0.8-0.8-2,0-2.8c0.8-0.8,2-0.8,2.8,0
		C1699.3,194.1,1699.3,195.4,1698.5,196.1z"/>
	<path id="XMLID_317_" class="st0" d="M1703.2,246.8c-0.8,0.8-2,0.8-2.8,0c-0.8-0.8-0.8-2,0-2.8c0.8-0.8,2-0.8,2.8,0
		C1704,244.8,1704,246,1703.2,246.8z"/>
	<path id="XMLID_316_" class="st0" d="M1700.1,208.4c-0.6,0.9-1.8,1.2-2.7,0.6c-0.9-0.6-1.2-1.8-0.6-2.7c0.6-0.9,1.8-1.2,2.7-0.6
		C1700.5,206.3,1700.7,207.5,1700.1,208.4z"/>
	<line id="XMLID_315_" class="st0" x1="1707" y1="233" x2="1699.4" y2="233"/>
	<line id="XMLID_314_" class="st0" x1="1687.3" y1="194.8" x2="1694.9" y2="194.8"/>
	<polyline id="XMLID_313_" class="st0" points="1697.6,263.4 1701.8,255.1 1701.8,247 	"/>
	<path id="XMLID_312_" class="st0" d="M1720.8,202.9L1720.8,202.9c-1,1.6-2.5,2.7-4.3,3.1c-3.8,1-7.8-1.4-8.7-5.2"/>
	<path id="XMLID_311_" class="st0" d="M1724.6,217.5L1724.6,217.5c-0.9-1.9-1.1-4.2-0.5-6.2c1.4-4.4,6.1-6.9,10.6-5.5"/>
	<path id="XMLID_310_" class="st0" d="M1707.7,244.3c1.2,1.4,2.9,2.2,4.6,2.2c3.1,0.1,4.9-2.1,5.2-2.5"/>
	<path id="XMLID_309_" class="st0" d="M1717.6,214.9c-1.2-1.4-2.9-2.2-4.6-2.2c-3.1-0.1-4.9,2.1-5.2,2.5"/>
	<path id="XMLID_308_" class="st0" d="M1735.5,244.5c0,0-11.9,0.9-12.5-10.5c-9.1,1.2-10.7-6.4-10.7-6.4"/>
</g>
<g id="XMLID_1151_">
	<g id="XMLID_298_">
		<path id="XMLID_307_" class="st0" d="M1682.9,510.8c1.7,1.3,3.6,2.5,5.6,3.4c1.1,0.5,1.8,1.7,1.8,2.9v3.4h26v-3.4
			c0-1.2,0.7-2.4,1.8-2.9c10.5-5,17.7-15.7,17.7-28.2v-7.8"/>
		<path id="XMLID_306_" class="st0" d="M1670.7,478.3v7.8c0,9.2,4,17.4,10.2,23.1"/>
		<line id="XMLID_305_" class="st0" x1="1714.6" y1="478.7" x2="1708.6" y2="491.3"/>
		<line id="XMLID_304_" class="st0" x1="1729.2" y1="478.7" x2="1723.3" y2="491.3"/>
		<path id="XMLID_303_" class="st0" d="M1717.9,472.1c1.1-2,1.8-2.6,3.3-3.8l0,0c1.9-1.5,3.3-3.1,4.3-5.3l5.6-12
			c0.8-1.7,2.7-2.4,4.4-1.6l0,0c1.6,0.8,2.4,2.8,1.6,4.4l-5.6,12c-0.9,2-1.3,3.9-1.3,6"/>
		<g id="XMLID_301_">
			<path id="XMLID_302_" class="st0" d="M1677.2,491.3c2.9,11.1,13.9,21.1,26,21.1c12.2,0,23.2-9.8,26-21.1
				C1714.5,491.3,1686.4,491.3,1677.2,491.3z"/>
		</g>
	</g>
	<polygon id="XMLID_297_" class="st0" points="1666.6,472.8 1741,472.8 1740.6,478 1666.9,478 	"/>
</g>
<g id="XMLID_735_">
	<g id="XMLID_736_">
		<g id="XMLID_809_">
			<g id="XMLID_813_">
				<g id="XMLID_1148_">
					<path id="XMLID_1150_" class="st0" d="M1704.2,329.3c2,7.6,1.9,14.2-0.4,14.8c-2.2,0.6-5.7-5-7.7-12.6
						c-2-7.6,0.4-14.8,0.4-14.8S1702.2,321.7,1704.2,329.3z"/>
					<path id="XMLID_1149_" class="st0" d="M1709.5,381.4c-2-7.6-1.9-14.2,0.4-14.8c2.2-0.6,5.7,5,7.7,12.6c2,7.6-0.4,14.8-0.4,14.8
						S1711.5,389,1709.5,381.4z"/>
				</g>
				<g id="XMLID_1145_">
					<path id="XMLID_1147_" class="st0" d="M1697.6,330.8c3.9,6.8,5.5,13.2,3.5,14.4c-2,1.2-6.8-3.4-10.7-10.2
						c-3.9-6.8-3.5-14.4-3.5-14.4S1693.7,324.1,1697.6,330.8z"/>
					<path id="XMLID_1146_" class="st0" d="M1716.2,379.9c-3.9-6.8-5.5-13.2-3.5-14.4c2-1.2,6.8,3.4,10.7,10.2
						c3.9,6.8,3.5,14.4,3.5,14.4S1720.1,386.6,1716.2,379.9z"/>
				</g>
				<g id="XMLID_1141_">
					<path id="XMLID_1144_" class="st0" d="M1686.6,338.8c6.8,3.9,11.3,8.7,10.2,10.7c-1.2,2-7.6,0.5-14.4-3.5
						c-6.8-3.9-10.2-10.7-10.2-10.7S1679.8,334.9,1686.6,338.8z"/>
					<path id="XMLID_1142_" class="st0" d="M1727.2,371.9c-6.8-3.9-11.3-8.7-10.2-10.7c1.2-2,7.6-0.5,14.4,3.5
						c6.8,3.9,10.2,10.7,10.2,10.7S1734,375.8,1727.2,371.9z"/>
				</g>
				<g id="XMLID_1138_">
					<path id="XMLID_1140_" class="st0" d="M1683,344.6c7.6,2,13.2,5.5,12.6,7.7c-0.6,2.2-7.2,2.4-14.8,0.4
						c-7.6-2-12.6-7.7-12.6-7.7S1675.4,342.6,1683,344.6z"/>
					<path id="XMLID_1139_" class="st0" d="M1730.8,366.1c-7.6-2-13.2-5.5-12.6-7.7c0.6-2.2,7.2-2.4,14.8-0.4
						c7.6,2,12.6,7.7,12.6,7.7S1738.3,368.1,1730.8,366.1z"/>
				</g>
				<g id="XMLID_1135_">
					<path id="XMLID_1137_" class="st0" d="M1680.8,358c7.6-2,14.2-1.9,14.8,0.4c0.6,2.2-5,5.7-12.6,7.7c-7.6,2-14.8-0.4-14.8-0.4
						S1673.2,360,1680.8,358z"/>
					<path id="XMLID_1136_" class="st0" d="M1732.9,352.7c-7.6,2-14.2,1.9-14.8-0.4c-0.6-2.2,5-5.7,12.6-7.7
						c7.6-2,14.8,0.4,14.8,0.4S1740.5,350.7,1732.9,352.7z"/>
				</g>
				<g id="XMLID_1132_">
					<path id="XMLID_1134_" class="st0" d="M1682.4,364.7c6.8-3.9,13.2-5.5,14.4-3.5c1.2,2-3.4,6.8-10.2,10.7
						c-6.8,3.9-14.4,3.5-14.4,3.5S1675.6,368.6,1682.4,364.7z"/>
					<path id="XMLID_1133_" class="st0" d="M1731.4,346.1c-6.8,3.9-13.2,5.5-14.4,3.5c-1.2-2,3.4-6.8,10.2-10.7
						c6.8-3.9,14.4-3.5,14.4-3.5S1738.2,342.1,1731.4,346.1z"/>
				</g>
				<g id="XMLID_1129_">
					<path id="XMLID_1131_" class="st0" d="M1690.3,375.7c3.9-6.8,8.7-11.3,10.7-10.2c2,1.2,0.5,7.6-3.5,14.4
						c-3.9,6.8-10.7,10.2-10.7,10.2S1686.4,382.4,1690.3,375.7z"/>
					<path id="XMLID_1130_" class="st0" d="M1723.4,335.1c-3.9,6.8-8.7,11.3-10.7,10.2c-2-1.2-0.5-7.6,3.5-14.4
						c3.9-6.8,10.7-10.2,10.7-10.2S1727.4,328.3,1723.4,335.1z"/>
				</g>
				<g id="XMLID_1119_">
					<path id="XMLID_1128_" class="st0" d="M1696.1,379.3c2-7.6,5.5-13.2,7.7-12.6c2.2,0.6,2.4,7.2,0.4,14.8
						c-2,7.6-7.7,12.6-7.7,12.6S1694.1,386.8,1696.1,379.3z"/>
					<path id="XMLID_1127_" class="st0" d="M1717.6,331.5c-2,7.6-5.5,13.2-7.7,12.6c-2.2-0.6-2.4-7.2-0.4-14.8
						c2-7.6,7.7-12.6,7.7-12.6S1719.6,323.9,1717.6,331.5z"/>
				</g>
				<g id="XMLID_1060_">
					<path id="XMLID_1067_" class="st0" d="M1711.1,329.5c0,7.8-1.9,14.2-4.2,14.2c-2.3,0-4.2-6.4-4.2-14.2c0-7.8,4.2-14.2,4.2-14.2
						S1711.1,321.6,1711.1,329.5z"/>
					<path id="XMLID_1064_" class="st0" d="M1702.7,381.2c0-7.8,1.9-14.2,4.2-14.2c2.3,0,4.2,6.4,4.2,14.2c0,7.8-4.2,14.2-4.2,14.2
						S1702.7,389.1,1702.7,381.2z"/>
				</g>
				<g id="XMLID_1056_">
					<path id="XMLID_1058_" class="st0" d="M1691.5,334.1c5.5,5.5,8.7,11.4,7.1,13c-1.6,1.6-7.5-1.5-13-7.1c-5.5-5.5-7.1-13-7.1-13
						S1686,328.5,1691.5,334.1z"/>
					<path id="XMLID_1057_" class="st0" d="M1722.2,376.6c-5.5-5.5-8.7-11.4-7.1-13c1.6-1.6,7.5,1.5,13,7.1c5.5,5.5,7.1,13,7.1,13
						S1727.7,382.2,1722.2,376.6z"/>
				</g>
				<g id="XMLID_1052_">
					<path id="XMLID_1054_" class="st0" d="M1681,351.2c7.8,0,14.2,1.9,14.2,4.2c0,2.3-6.4,4.2-14.2,4.2c-7.8,0-14.2-4.2-14.2-4.2
						S1673.2,351.2,1681,351.2z"/>
					<path id="XMLID_1053_" class="st0" d="M1732.7,359.6c-7.8,0-14.2-1.9-14.2-4.2c0-2.3,6.4-4.2,14.2-4.2c7.8,0,14.2,4.2,14.2,4.2
						S1740.6,359.6,1732.7,359.6z"/>
				</g>
				<g id="XMLID_821_">
					<path id="XMLID_842_" class="st0" d="M1685.6,370.7c5.5-5.5,11.4-8.7,13-7.1s-1.5,7.5-7.1,13c-5.5,5.5-13,7.1-13,7.1
						S1680.1,376.2,1685.6,370.7z"/>
					<path id="XMLID_840_" class="st0" d="M1728.1,340c-5.5,5.5-11.4,8.7-13,7.1c-1.6-1.6,1.5-7.5,7.1-13c5.5-5.5,13-7.1,13-7.1
						S1733.7,334.5,1728.1,340z"/>
				</g>
			</g>
			<path id="XMLID_811_" class="st0" d="M1722.8,355.4c0,8.8-7.1,15.9-15.9,15.9c-8.8,0-15.9-7.1-15.9-15.9
				c0-8.8,7.1-15.9,15.9-15.9C1715.7,339.4,1722.8,346.6,1722.8,355.4z"/>
			<path id="XMLID_810_" class="st0" d="M1716.8,355.4c0,5.5-4.4,9.9-9.9,9.9c-5.5,0-9.9-4.4-9.9-9.9c0-5.5,4.4-9.9,9.9-9.9
				C1712.4,345.4,1716.8,349.9,1716.8,355.4z"/>
		</g>
		<g id="XMLID_740_">
			<path id="XMLID_799_" class="st0" d="M1685.4,382.4c0,4.6-3.7,8.3-8.3,8.3c-4.6,0-8.3-3.7-8.3-8.3c0-4.6,8.3-17.5,8.3-17.5
				S1685.4,377.8,1685.4,382.4z"/>
			<path id="XMLID_797_" class="st0" d="M1682,382c0,0.8-0.2,1.5-0.6,2.2c-0.5,0.9-1.3,1.6-2.3,2"/>
		</g>
		<g id="XMLID_737_">
			<path id="XMLID_739_" class="st0" d="M1677.2,362.7c0,4.6-3.7,8.3-8.3,8.3c-4.6,0-8.3-3.7-8.3-8.3c0-4.6,8.3-17.5,8.3-17.5
				S1677.2,358.2,1677.2,362.7z"/>
			<path id="XMLID_738_" class="st0" d="M1673.8,362.3c0,0.8-0.2,1.5-0.6,2.2c-0.5,0.9-1.3,1.6-2.3,2"/>
		</g>
	</g>
</g>
<g id="XMLID_517_">
	<g id="XMLID_296_">
		<path id="XMLID_436_" class="st0" d="M1736.6,722c4.4,6.4,6.9,14.1,6.9,22.4c0,21.9-17.8,39.7-39.7,39.7
			c-21.9,0-39.7-17.8-39.7-39.7c0-21.9,17.8-39.7,39.7-39.7c8.2,0,15.9,2.5,22.2,6.8"/>
	</g>
	<g id="XMLID_431_">
		<line id="XMLID_432_" class="st0" x1="1736.3" y1="712" x2="1670.8" y2="777.4"/>
	</g>
	<g id="XMLID_17_">
		<g id="XMLID_34_">
			<path id="XMLID_54_" class="st0" d="M1723.7,751.1c0,0-46.3,0-49.5,0c1.7-6.6,9.5-14.3,9.5-14.3l2.5-9.1l5.2,4.4
				c0,0,10.6-7.2,21.9-1.1C1722.7,735.9,1723.7,751.1,1723.7,751.1z"/>
			<path id="XMLID_49_" class="st0" d="M1723.7,751.1c0,0,0.6,0,4.6,0c4.4,0,4.4,7.7,0,7.7c-3.6,0-22.7,0-24.8,0s-2,4.2,0,4.2
				c1.4,0,2.8,0,2.8,0"/>
			<path id="XMLID_35_" class="st2" d="M1684.9,744.5c0,0.8-0.7,1.5-1.5,1.5c-0.8,0-1.5-0.7-1.5-1.5c0-0.8,0.7-1.5,1.5-1.5
				C1684.3,743,1684.9,743.7,1684.9,744.5z"/>
		</g>
	</g>
</g>
<g id="XMLID_14_">
	<g>
		<polygon id="XMLID_20_" class="st0" points="1678.8,665.3 1648.9,665.3 1648.9,564.7 1698.1,564.7 1729.4,564.7 1758.6,564.7 
			1758.6,665.3 1729,665.3 		"/>
	</g>
</g>
<g id="XMLID_10_">
	<g>
		<polygon id="XMLID_18_" class="st0" points="1678.8,535.1 1648.9,535.1 1648.9,434.5 1698.1,434.5 1729.4,434.5 1758.6,434.5 
			1758.6,535.1 1729,535.1 		"/>
	</g>
</g>
<g id="XMLID_6_">
	<g>
		<polygon id="XMLID_16_" class="st0" points="1678.8,405.6 1648.9,405.6 1648.9,305.1 1698.1,305.1 1729.4,305.1 1758.6,305.1 
			1758.6,405.6 1729,405.6 		"/>
	</g>
</g>
<g id="XMLID_52_">
	<g>
		<polyline id="XMLID_79_" class="st0" points="50,1.9 110.5,1.9 110.5,102.4 62.6,102.4 		"/>
		<polyline id="XMLID_78_" class="st0" points="62.6,102.4 0.8,102.4 0.8,1.9 49.9,1.9 		"/>
	</g>
</g>
<g id="XMLID_1_">
	<path id="XMLID_48_" class="st0" d="M45.6,87.7c1.6,1,3.4,1.6,5.3,1.6c3.7,0,6.9-2,8.5-5.1c1.7,3,4.9,5.1,8.5,5.1
		c2.8,0,5.4-1.2,7.2-3.2c0,0,0,0,0.1,0c1.1-1.1,1.9-2.5,2.2-3.9c0.4,0,0.8,0.1,1.2,0.1c5.8,0,10.4-4.7,10.4-10.4c0-0.3,0-0.6,0-1
		c4.4-2.3,7.1-6.8,7.1-11.8c0-2.7-0.8-5.2-2.2-7.4c0,0,0,0,0,0c0,0-0.1-0.1-0.1-0.1c-0.6-0.9-1.4-1.7-2.2-2.5c2-2.1,3.1-4.8,3.1-7.7
		c0-4-2.2-7.7-5.7-9.7c0-0.1,0-0.1,0-0.2c0-5.5-3.9-10.1-9.2-11c-1.6-4.3-5.8-7.2-10.4-7.2c-4.3,0-8.1,2.5-9.9,6.1
		c0-0.1-0.1-0.1-0.1-0.2c-1.9-3.5-5.6-5.9-9.8-5.9c-4.6,0-8.8,2.9-10.4,7.2c-5.3,0.9-9.2,5.5-9.2,11c0,0.1,0,0.1,0,0.2
		c-3.5,2-5.7,5.7-5.7,9.7c0,2.9,1.1,5.7,3.1,7.7c-2.9,2.5-4.5,6.1-4.5,10 M77.1,79.7c-0.1-2.1-0.9-4.2-2.5-5.9"/>
	<path id="XMLID_46_" class="st0" d="M83.3,50.3c2,0.6,4.3,0.6,6.4-0.4"/>
	<path id="XMLID_44_" class="st0" d="M43.4,84.6l-1.1-2.9c0.3-0.5,0.5-0.9,0.7-1.4l3-0.8c0.5-0.1,0.9-0.6,0.9-1.1l0.4-4
		c0-0.5-0.2-1-0.7-1.2l-2.9-1.3c-0.1-0.5-0.3-1-0.5-1.5l1.6-2.7c0.3-0.5,0.2-1-0.1-1.4l-2.6-3.1c-0.3-0.4-0.9-0.6-1.4-0.4l-2.9,1.1
		c-0.5-0.3-0.9-0.5-1.4-0.7l-0.8-3c-0.1-0.5-0.6-0.9-1.1-0.9l-4-0.4c-0.5,0-1,0.2-1.2,0.7l-1.3,2.9c-0.5,0.1-1,0.3-1.5,0.5l-2.7-1.6
		c-0.5-0.3-1-0.2-1.4,0.1l-3.1,2.6c-0.4,0.3-0.6,0.9-0.4,1.4l1.1,2.9c-0.3,0.5-0.5,0.9-0.7,1.4l-3,0.8c-0.5,0.1-0.9,0.6-0.9,1.1
		l-0.4,4c0,0.5,0.2,1,0.7,1.2l2.9,1.3c0.1,0.5,0.3,1,0.5,1.5l-1.6,2.7c-0.3,0.5-0.2,1,0.1,1.4l2.6,3.1c0.3,0.4,0.9,0.6,1.4,0.4
		l2.9-1.1c0.5,0.3,0.9,0.5,1.4,0.7l0.8,3c0.1,0.5,0.6,0.9,1.1,0.9l4,0.4c0,0,0.1,0,0.1,0c0.5,0,0.9-0.3,1.1-0.7l1.3-2.9
		c0.5-0.1,1-0.3,1.5-0.5l2.7,1.6c0.5,0.3,1,0.2,1.4-0.1l3.1-2.6C43.4,85.6,43.5,85.1,43.4,84.6z"/>
	<path id="XMLID_42_" class="st0" d="M35.4,75.3c-0.1,1.1-0.6,2.1-1.5,2.8c-0.9,0.7-1.9,1.1-3.1,1h0c-1.1-0.1-2.1-0.6-2.8-1.5
		c-0.7-0.9-1.1-1.9-1-3.1c0.2-2.2,2-3.8,4.2-3.8c0.1,0,0.3,0,0.4,0c1.1,0.1,2.1,0.6,2.8,1.5C35.1,73.1,35.5,74.2,35.4,75.3z"/>
	<polyline id="XMLID_40_" class="st0" points="27.3,49.1 30.7,51.5 42.8,52.2 48.9,46.9 	"/>
	<line id="XMLID_39_" class="st0" x1="29.9" y1="31.7" x2="39.2" y2="38.1"/>
	<polyline id="XMLID_31_" class="st0" points="51.2,31.4 59.5,19.3 59.5,85.9 	"/>
	<path id="XMLID_30_" class="st0" d="M41.7,37.9c0.8,0.8,0.8,2,0,2.8c-0.8,0.8-2,0.8-2.8,0c-0.8-0.8-0.8-2,0-2.8
		C39.7,37.1,41,37.1,41.7,37.9z"/>
	<path id="XMLID_29_" class="st0" d="M51.5,47c-0.8,0.8-2,0.8-2.8,0c-0.8-0.8-0.8-2,0-2.8c0.8-0.8,2-0.8,2.8,0
		C52.3,45,52.3,46.3,51.5,47z"/>
	<path id="XMLID_28_" class="st0" d="M50.6,60.3c-0.8,0.8-2,0.8-2.8,0c-0.8-0.8-0.8-2,0-2.8c0.8-0.8,2-0.8,2.8,0
		C51.3,58.3,51.3,59.6,50.6,60.3z"/>
	<path id="XMLID_27_" class="st0" d="M50.3,21.9c-0.8,0.8-2,0.8-2.8,0c-0.8-0.8-0.8-2,0-2.8c0.8-0.8,2-0.8,2.8,0
		C51.1,19.9,51.1,21.1,50.3,21.9z"/>
	<path id="XMLID_26_" class="st0" d="M55.1,72.5c-0.8,0.8-2,0.8-2.8,0c-0.8-0.8-0.8-2,0-2.8c0.8-0.8,2-0.8,2.8,0
		C55.8,70.5,55.8,71.8,55.1,72.5z"/>
	<path id="XMLID_24_" class="st0" d="M52,34.2c-0.6,0.9-1.8,1.2-2.7,0.6c-0.9-0.6-1.2-1.8-0.6-2.7c0.6-0.9,1.8-1.2,2.7-0.6
		C52.3,32.1,52.6,33.3,52,34.2z"/>
	<line id="XMLID_15_" class="st0" x1="58.9" y1="58.8" x2="51.3" y2="58.8"/>
	<line id="XMLID_12_" class="st0" x1="39.2" y1="20.6" x2="46.8" y2="20.6"/>
	<polyline id="XMLID_11_" class="st0" points="49.4,89.2 53.6,80.8 53.6,72.8 	"/>
	<path id="XMLID_8_" class="st0" d="M72.7,28.7L72.7,28.7c-1,1.6-2.5,2.7-4.3,3.1c-3.8,1-7.8-1.4-8.7-5.2"/>
	<path id="XMLID_5_" class="st0" d="M76.4,43.3L76.4,43.3c-0.9-1.9-1.1-4.2-0.5-6.2c1.4-4.4,6.1-6.9,10.6-5.5"/>
	<path id="XMLID_4_" class="st0" d="M59.5,70.1c1.2,1.4,2.9,2.2,4.6,2.2c3.1,0.1,4.9-2.1,5.2-2.5"/>
	<path id="XMLID_3_" class="st0" d="M69.5,40.6c-1.2-1.4-2.9-2.2-4.6-2.2c-3.1-0.1-4.9,2.1-5.2,2.5"/>
	<path id="XMLID_2_" class="st0" d="M87.3,70.2c0,0-11.9,0.9-12.5-10.5c-9.1,1.2-10.7-6.4-10.7-6.4"/>
</g>
</svg>
