<?xml version="1.0" encoding="utf-8"?>
<!-- Generator: Adobe Illustrator 24.2.1, SVG Export Plug-In . SVG Version: 6.00 Build 0)  -->
<svg version="1.1" id="Capa_1" xmlns="http://www.w3.org/2000/svg" xmlns:xlink="http://www.w3.org/1999/xlink" x="0px" y="0px"
	 width="270.2px" height="91.1px" viewBox="0 0 270.2 91.1" style="enable-background:new 0 0 270.2 91.1;" xml:space="preserve">
<style type="text/css">
	.st0{fill:#EE7656;}
</style>
<g id="XMLID_534_">
	<g id="XMLID_568_">
		<path id="XMLID_653_" class="st0" d="M4.4,44.5c1-2.1,1.4-5,1.4-8.8V0h5.5v35.7c0,3.2-0.3,5.7-1,7.6c-0.7,1.9-1.8,3.3-3.5,4.2
			c-1.6,0.9-3.9,1.3-6.9,1.3v-1.2C2,47.7,3.4,46.6,4.4,44.5z"/>
		<path id="XMLID_600_" class="st0" d="M23.3,38.5c-1.9-1.6-2.9-4.5-2.9-8.6v-11c0-2.1-0.3-3.6-0.9-4.6c-0.6-1-1.7-1.5-3.4-1.5h-0.6
			v-1.2h4.9c1.5,0,2.6,0.2,3.4,0.6c0.8,0.4,1.3,1.1,1.6,2.1c0.3,1,0.5,2.6,0.5,4.6v11c0,2.9,0.6,4.9,1.9,6.3c1.3,1.3,2.9,2,4.8,2
			c2.2,0,4.2-1.1,6.1-3.2V11.6h5.5v28.7h-3.1L39,37.9l-0.3,0c-0.9,0.9-2,1.6-3.3,2.2C34,40.7,32.5,41,30.7,41
			C27.7,41,25.2,40.1,23.3,38.5z"/>
		<path id="XMLID_593_" class="st0" d="M52.5,38.5c-0.7-0.7-1.1-1.5-1.3-2.4c-0.2-0.9-0.2-2.2-0.2-4.1h1.2c0.4,2,1.3,3.6,2.7,4.7
			c1.4,1.1,3.4,1.7,5.9,1.7c2.2,0,3.9-0.4,5-1.2c1.1-0.8,1.7-1.8,1.7-3.1c0-1.2-0.4-2.2-1.3-3.1c-0.9-0.9-2.3-1.7-4.2-2.4l-3.7-1.5
			c-2.4-1-4.3-2.1-5.5-3.4c-1.2-1.3-1.8-2.9-1.8-4.8c0-2.5,0.9-4.4,2.8-5.8c1.9-1.4,4.3-2.1,7.3-2.1c4.5,0,7.5,0.8,9.2,2.4
			c0.7,0.7,1.1,1.5,1.3,2.3c0.2,0.9,0.2,2.2,0.2,4.1h-1.2c-0.3-2-1.2-3.6-2.6-4.7c-1.4-1.1-3.3-1.7-5.7-1.7c-1.9,0-3.4,0.4-4.5,1.2
			c-1.1,0.8-1.6,1.8-1.6,3.1c0,2.1,1.6,3.9,4.9,5.2l3.7,1.5c2.8,1.1,4.8,2.4,6.1,3.6c1.3,1.3,1.9,2.9,1.9,4.9c0,2.5-1,4.4-3,5.8
			c-2,1.4-4.6,2.1-7.7,2.1C57.3,41,54.1,40.1,52.5,38.5z"/>
		<path id="XMLID_590_" class="st0" d="M82.1,39c-1.3-1.3-2-3.3-2-6V13.9h-5.3v-2.5h5.3V4.7h3.1h2.4v6.7H93v2.5h-7.3V33
			c0,3.7,1.4,5.5,4.3,5.5c1,0,1.8-0.1,2.5-0.3c0.7-0.2,1.4-0.5,2.1-0.9l0.6,1.2c-0.9,0.7-2,1.3-3.1,1.7c-1.1,0.5-2.6,0.7-4.5,0.7
			C85.2,41,83.4,40.3,82.1,39z"/>
	</g>
	<path id="XMLID_566_" class="st0" d="M43.8,51.8c-0.6-1-1.7-1.5-3.5-1.5h-1.2V49h24.7c3.5,0,5.3,1.7,5.3,5v4.6h-1.2
		c0-4.7-2.6-7.1-7.7-7.1h-9.9v16.4h14v2.5h-14v19.5h-5.6V56.4C44.7,54.3,44.4,52.8,43.8,51.8z"/>
	<path id="XMLID_563_" class="st0" d="M75.4,88.4c-2.1-1.3-3.6-3.2-4.7-5.5c-1.1-2.3-1.6-4.9-1.6-7.7c0-2.8,0.5-5.4,1.6-7.7
		c1.1-2.3,2.6-4.1,4.7-5.5c2.1-1.3,4.5-2,7.3-2c2.8,0,5.2,0.7,7.3,2c2.1,1.3,3.6,3.2,4.7,5.5c1.1,2.3,1.6,4.9,1.6,7.7
		c0,2.8-0.5,5.4-1.6,7.7c-1.1,2.3-2.6,4.1-4.7,5.5c-2.1,1.3-4.5,2-7.3,2C79.9,90.4,77.5,89.7,75.4,88.4z M86.8,86.3
		c1.2-1.1,2.1-2.6,2.7-4.6c0.6-1.9,1-4.1,1-6.4c0-2.4-0.3-4.5-1-6.4c-0.6-1.9-1.5-3.5-2.7-4.6c-1.2-1.1-2.5-1.7-4.1-1.7
		c-1.5,0-2.9,0.6-4.1,1.7c-1.2,1.1-2.1,2.6-2.7,4.6c-0.6,1.9-1,4.1-1,6.4c0,2.4,0.3,4.5,1,6.4c0.6,1.9,1.5,3.5,2.7,4.6
		c1.2,1.1,2.5,1.7,4.1,1.7C84.3,87.9,85.6,87.4,86.8,86.3z"/>
	<path id="XMLID_552_" class="st0" d="M101.6,63.5c-0.6-1-1.7-1.5-3.5-1.5h-0.6v-1.2h5c1.6,0,2.8,0.2,3.6,0.7c0.8,0.4,1.7,1.1,2,2.1
		c0,0,1.6-3.2,5.9-3.4c3.8-0.2,6.7,2.4,7.4,3.7l-2.1,1.5c0,0-1.4-2.3-5.3-2.1c-4.4,0.3-5.9,5.2-5.9,6.7v19.9h-5.6V68.2
		C102.5,66.1,102.2,64.5,101.6,63.5z"/>
	<path id="XMLID_540_" class="st0" d="M115,26.8c-2.1-2.9-3.8-5.2-5.2-6.9c-1.4-1.7-3.1-3.1-5.1-4.3c-1.9-1.2-4.3-1.8-7-1.8v-2.5
		h7.7c4,0,7.3,1.2,10,3.5c2.7,2.3,5.3,5.5,7.9,9.6l17.3,24.8l22.7-37.9h9.6l-26.8,45.2v33.3h-10.7V57.4L115,26.8z"/>
	<path id="XMLID_537_" class="st0" d="M173.8,87.2c-4-2.6-7-6.1-9-10.5c-2.1-4.4-3.1-9.4-3.1-14.8c0-5.4,1-10.3,3.1-14.8
		c2.1-4.4,5.1-8,9-10.5c4-2.6,8.6-3.9,14-3.9c5.4,0,10.1,1.3,14,3.9c4,2.6,7,6.1,9,10.5c2.1,4.4,3.1,9.4,3.1,14.8
		c0,5.4-1,10.3-3.1,14.8c-2.1,4.4-5.1,8-9,10.5c-4,2.6-8.6,3.9-14,3.9C182.4,91.1,177.7,89.8,173.8,87.2z M195.6,83.1
		c2.3-2.1,4-5.1,5.2-8.8c1.2-3.7,1.8-7.9,1.8-12.4c0-4.5-0.6-8.6-1.8-12.4c-1.2-3.7-3-6.7-5.2-8.8c-2.3-2.1-4.9-3.2-7.8-3.2
		c-2.9,0-5.5,1.1-7.8,3.2c-2.3,2.1-4,5.1-5.2,8.8c-1.2,3.7-1.8,7.9-1.8,12.4c0,4.5,0.6,8.6,1.8,12.4c1.2,3.7,3,6.7,5.2,8.8
		c2.3,2.1,4.9,3.2,7.8,3.2C190.7,86.3,193.3,85.3,195.6,83.1z"/>
	<path id="XMLID_535_" class="st0" d="M229.5,86.3c-3.8-3.2-5.7-8.7-5.7-16.7V48.3c0-4-0.6-7-1.7-9c-1.1-1.9-3.3-2.9-6.7-2.9h-1.2
		V34h9.5c2.9,0,5.1,0.4,6.6,1.1c1.5,0.8,2.5,2.1,3.2,4.1c0.6,2,1,5,1,9v21.4c0,5.6,1.2,9.6,3.7,12.2c2.5,2.6,5.6,3.9,9.3,3.9
		c4.2,0,8.2-2.1,11.9-6.3V34h10.7v55.9h-5.9l-4.2-4.8l-0.6,0c-1.7,1.7-3.8,3.1-6.5,4.2c-2.7,1.1-5.7,1.7-9,1.7
		C238.1,91.1,233.2,89.5,229.5,86.3z"/>
</g>
</svg>
